<?xml version="1.0" encoding="UTF-8" standalone="no"?>
<svg
   xmlns:dc="http://purl.org/dc/elements/1.1/"
   xmlns:cc="http://creativecommons.org/ns#"
   xmlns:rdf="http://www.w3.org/1999/02/22-rdf-syntax-ns#"
   xmlns:svg="http://www.w3.org/2000/svg"
   xmlns="http://www.w3.org/2000/svg"
   id="svg104"
   version="1.1"
   style="overflow:visible"
   viewBox="-240 -177 480 355"
   height="1420px"
   width="1920px">
  <metadata
     id="metadata110">
    <rdf:RDF>
      <cc:Work
         rdf:about="">
        <dc:format>image/svg+xml</dc:format>
        <dc:type
           rdf:resource="http://purl.org/dc/dcmitype/StillImage" />
      </cc:Work>
    </rdf:RDF>
  </metadata>
  <defs
     id="defs108" />
  <rect
     id="rect2"
     fill-opacity="0"
     fill="rgb(0,0,0)"
     height="355"
     width="480"
     y="-177"
     x="-240" />
  <svg
     id="svg102"
     version="1.1"
     y="-250"
     x="-250"
     viewBox="-250 -250 500 500"
     height="500"
     width="500"
     style="overflow:visible">
    <g
       style="fill:#ffffff;stroke-linejoin:round"
       id="g100">
      <path
         style="fill:#099c4a;fill-opacity:1;stroke:#099c4a;stroke-width:2;stroke-linecap:butt;stroke-linejoin:round;stroke-opacity:1"
         id="path4"
         d="m 89.89,-34.26 -3.4926,-5.6669 4.1102,-18.456 -9.2658,-4.1121 -3.7776,5.7426 7.028,3.9064 -2.0926,6.1166 -8.0452,-1.0182 -0.8192,-8.011101 -4.5409,-2.0841 -3.1119,9.5291 -5.9871,1.7809 -1.0605,6.7294 13.805,17.178 z" />
      <path
         style="fill:#099c4a;fill-opacity:1;stroke:#099c4a;stroke-width:2;stroke-linecap:butt;stroke-linejoin:round;stroke-opacity:1"
         id="path6"
         d="m 68.46,-2.92 -1.0186,-11.456 3.6595,-4.5382 3.8328,-12.73 14.961,-2.6165 3.5183,17.304 -8.7649,16.527999 -11.829,5.8239 z" />
      <path
         style="fill:#099c4a;fill-opacity:1;stroke:#099c4a;stroke-width:2;stroke-linecap:butt;stroke-linejoin:round;stroke-opacity:1"
         id="path8"
         d="m 58.84,-39.81 -0.4657,6.8306 -4.0948,3.502 3.8883,5.9091 -5.126,13.648 17.996,19.162 3.8971,-40.892 0.7311,-5.8233 z" />
      <path
         style="fill:#099c4a;fill-opacity:1;stroke:#099c4a;stroke-width:2;stroke-linecap:butt;stroke-linejoin:round;stroke-opacity:1"
         id="path10"
         d="m 44.43,1.56 0.9817,17.31 12.41,11.561 6.288,-31.472 -11.076,-8.8805 z" />
      <path
         style="fill:#099c4a;fill-opacity:1;stroke:#099c4a;stroke-width:2;stroke-linecap:butt;stroke-linejoin:round;stroke-opacity:1"
         id="path12"
         d="m 67.15,22.13 1.2925,-8.0894 5.0005,-3.1732 5.7884,1.9464 0.9817,-8.3172 4.4263,-4.9326 -3.1398,-1.5834 -5.5394,3.2563 -7.5087,-4.1631 -4.3436,1.8853 -8.4477,18.768 4.3951,6.9347 z" />
      <path
         style="fill:#099c4a;fill-opacity:1;stroke:#099c4a;stroke-width:2;stroke-linecap:butt;stroke-linejoin:round;stroke-opacity:1"
         id="path14"
         d="m 44.43,1.56 -5.2153,11.096 -10.672,4.132799 -6.2579,9.5192 -17.352,5.3587 -1.4093,5.3846 21.673,7.8569 7.7676,-7.9066 9.3838,-6.7015 3.0649,-11.43 2.3263,-8.9131 z" />
      <path
         style="fill:#099c4a;fill-opacity:1;stroke:#099c4a;stroke-width:2;stroke-linecap:butt;stroke-linejoin:round;stroke-opacity:1"
         id="path16"
         d="m -50.35,83.06 -0.9526,8.1472 4.0358,8.120799 6.5056,3.380301 4.8221,-4.690401 -2.5919,-18.87 z" />
      <path
         style="fill:#099c4a;fill-opacity:1;stroke:#099c4a;stroke-width:2;stroke-linecap:butt;stroke-linejoin:round;stroke-opacity:1"
         id="path18"
         d="m -38.26,93.16 2.4711,-12.688 7.2488,-12.643 6.0677,-0.5856 7.6958,-0.9205 -3.223,5.9667 -5.365,5.8226 5.7412,6.8364 -1.7282,3.4672 -3.5232,-1.3863 -7.0128,3.1808 -0.1676,3.0328 -5.8853,4.772 z" />
      <path
         style="fill:#099c4a;fill-opacity:1;stroke:#099c4a;stroke-width:2;stroke-linecap:butt;stroke-linejoin:round;stroke-opacity:1"
         id="path20"
         d="m -39.93,81.94 -0.8828,-4.4829 5.641,-6.3944 3.5807,5.5604 -1.7106,13.616 -4.957,2.9181 -4.5867,-4.8909 3.1001,-2.7966 z" />
      <path
         style="fill:#099c4a;fill-opacity:1;stroke:#099c4a;stroke-width:2;stroke-linecap:butt;stroke-linejoin:round;stroke-opacity:1"
         id="path22"
         d="m -37.45,74.58 0.6698,-7.237 -7.9538,-0.0264 1.2895,7.7678 -0.5665,3.1031 -6.339,4.8697 10.42,-1.1145 z" />
      <path
         style="fill:#099c4a;fill-opacity:1;stroke:#099c4a;stroke-width:2;stroke-linecap:butt;stroke-linejoin:round;stroke-opacity:1"
         id="path24"
         d="m -31.59,76.63 -4.6946,-8.544 3.2489,-6.0461 8.6115,-9.0614 8.2997,7.1092 -6.3456,7.1595 -2.7454,6.3555 -3.6412,-0.1819 z" />
      <path
         style="fill:#099c4a;fill-opacity:1;stroke:#099c4a;stroke-width:2;stroke-linecap:butt;stroke-linejoin:round;stroke-opacity:1"
         id="path26"
         d="m -31.59,76.63 -5.859,-2.0458 -0.904,-4.4395 -3.7573,0.4982 -8.4492,-7.2898 2.0709,-10.675 6.157,-1.752 1.9193,2.075699 -2.2194,2.2467 1.1749,1.3878 8.421,5.4044 -0.4512,6.7455 z" />
      <path
         style="fill:#099c4a;fill-opacity:1;stroke:#099c4a;stroke-width:2;stroke-linecap:butt;stroke-linejoin:round;stroke-opacity:1"
         id="path28"
         d="m -41.46,56.64 2.9471,-0.9493 2.3441,2.1479 8.9841,-3.458 -1.2668,-5.9006 6.0738,-5.877 12.358,5.4396 -2.6895,8.6757 -12.417,0.4613 -7.9122,4.8647 -5.0112,-1.377 z" />
      <path
         style="fill:#099c4a;fill-opacity:1;stroke:#099c4a;stroke-width:2;stroke-linecap:butt;stroke-linejoin:round;stroke-opacity:1"
         id="path30"
         d="m 24.62,76.74 -6.0381,-2.7061 2.7875,-9.3189 5.4464,1.2025 6.6832,-0.3247 4.214,4.101899 -3.2158,7.0627 -4.5784,-3.4025 -3.9127,0.3842 z" />
      <path
         style="fill:#099c4a;fill-opacity:1;stroke:#099c4a;stroke-width:2;stroke-linecap:butt;stroke-linejoin:round;stroke-opacity:1"
         id="path32"
         d="m 40.97,60.8 -1.2318,-9.0355 -12.433,-3.5604 -10.98,7.6899 4.7463,7.3633 22.009,4.412 z" />
      <path
         style="fill:#099c4a;fill-opacity:1;stroke:#099c4a;stroke-width:2;stroke-linecap:butt;stroke-linejoin:round;stroke-opacity:1"
         id="path34"
         d="m 26.81,65.92 -5.0526,-1.1231 1.7985,-3.8911 16.424,3.6675 2.8703,1.4424 -2.3872,1.876 -2.7561,1.8054 -5.5791,-1.1236 z" />
      <path
         style="fill:#099c4a;fill-opacity:1;stroke:#099c4a;stroke-width:2;stroke-linecap:butt;stroke-linejoin:round;stroke-opacity:1"
         id="path36"
         d="m 19.8,56.76 -13.131,-1.3428 1.984,19.78 13.632,-5.3316 4.5216,-3.9542 -3.2541,-5.0141 z" />
      <path
         style="fill:#099c4a;fill-opacity:1;stroke:#099c4a;stroke-width:2;stroke-linecap:butt;stroke-linejoin:round;stroke-opacity:1"
         id="path38"
         d="m 12.5,71.88 -2.8355,2.782 4.4068,1.3336 4.437,-0.3825 1.053,2.5406 -2.4557,1.0693 -1.1455,6.715 2.9699,1.5546 5.3919,-5.4681 0.2897,-5.2862 -2.541,-2.5313 0.2152,-4.3367 -6.3169,-0.8992 z" />
      <path
         style="fill:#099c4a;fill-opacity:1;stroke:#099c4a;stroke-width:2;stroke-linecap:butt;stroke-linejoin:round;stroke-opacity:1"
         id="path40"
         d="m 32.97,37.01 1.7762,-10.412 6.3539,-1.3686 4.3183,-6.3504 8.688,3.4016 1.5622,-4.545 11.49,4.4027 -2.2428,19.299 -4.4472,3.0048 -19.165,3.5751 z" />
      <path
         style="fill:#099c4a;fill-opacity:1;stroke:#099c4a;stroke-width:2;stroke-linecap:butt;stroke-linejoin:round;stroke-opacity:1"
         id="path42"
         d="m 6.5,36.31 -5.2073,2.028099 -9.4312,18.18 3.3576,17.282 12.011,-0.8739 2.0478,-7.2807 1.5868,-7.2522 8.934,-1.6296 4.8715,-8.8962 -2.2213,-7.6652 -2.0802,-6.2577 z" />
      <path
         style="fill:#099c4a;fill-opacity:1;stroke:#099c4a;stroke-width:2;stroke-linecap:butt;stroke-linejoin:round;stroke-opacity:1"
         id="path44"
         d="m 9.28,65.65 -7.5887,5.5319 -9.9919,4.3462 2.086399,6.1174 11.846,3.8511 6.8011,-7.0653 1.6391,-2.4327 -1.5712,-4.1156 z" />
      <path
         style="fill:#099c4a;fill-opacity:1;stroke:#099c4a;stroke-width:2;stroke-linecap:butt;stroke-linejoin:round;stroke-opacity:1"
         id="path46"
         d="m -6.22,81.64 -6.3518,0.8442 0.7914,-3.1017 -3.3657,-1.7968 -1.8859,0.2915 -0.9704,-5.5879 -1.1483,-3.5189 1.5423,-7.9247 9.2238,0.4435 5.4008,8.0435 4.6694,1.8436 -7.369,7.3186 z" />
      <path
         style="fill:#099c4a;fill-opacity:1;stroke:#099c4a;stroke-width:2;stroke-linecap:butt;stroke-linejoin:round;stroke-opacity:1"
         id="path48"
         d="m -25.12,57.17 3.6658,-2.5255 7.0026,-0.5586 -0.1082,-5.0039 0.3566,-7.2747 9.7138,-3.1409 6.5682,6.1603 -1.9742,8.4984 -3.8668,3.1909 2.2327,8.9514 -1.4462,3.8649 -7.8028,-1.4143 -1.4448,-3.8317 -4.153101,0.2558 -2.7663,4.4278 -3.3243,-1.5274 1.1,-5.9356 z" />
      <path
         style="fill:#099c4a;fill-opacity:1;stroke:#099c4a;stroke-width:2;stroke-linecap:butt;stroke-linejoin:round;stroke-opacity:1"
         id="path50"
         d="m -11.05,44.43 3.8422,-13.297 2.025599,-1.6234 1.4273,-6.3172 3.3324,-0.5703 2.0141,-4.1182 -12.223,1.945 -1.5781,12.327 -10.156,9.8188 7.8116,6.4887 z" />
      <path
         style="fill:#099c4a;fill-opacity:1;stroke:#099c4a;stroke-width:2;stroke-linecap:butt;stroke-linejoin:round;stroke-opacity:1"
         id="path52"
         d="m -11.05,44.43 -1.4303,-3.9168 3.2469,-7.7572 2.0257,-1.6235 1.848,4.0316 4.518,0.6807 1.3031,-3.5394 4.4806,-0.6375 1.5692,4.6401 -4.426,8.5187 -6.918,-3.0131 z" />
      <path
         style="fill:#099c4a;fill-opacity:1;stroke:#099c4a;stroke-width:2;stroke-linecap:butt;stroke-linejoin:round;stroke-opacity:1"
         id="path54"
         d="m -43.44,75.08 -6.4794,0.3483 -5.1275,-4.283 -6.6172,-0.1631 -3.6892,-5.0177 8.1991,-14.245 8.669,0.9493 0.5519,7.5283 5.5627,5.3192 0.2637,5.1178 z" />
      <path
         style="fill:#099c4a;fill-opacity:1;stroke:#099c4a;stroke-width:2;stroke-linecap:butt;stroke-linejoin:round;stroke-opacity:1"
         id="path56"
         d="m -59.32,60.8 -5.8024,1.8036 -15.351,1.3889 -1.5154,-4.598 -0.6177,-5.4386 6.0717,-1.4183 4.441,-1.4316 8.2112,2.095899 6.7228,-1.4808 0.7468,8.4362 z" />
      <path
         style="fill:#099c4a;fill-opacity:1;stroke:#099c4a;stroke-width:2;stroke-linecap:butt;stroke-linejoin:round;stroke-opacity:1"
         id="path58"
         d="m -59.23,60.78 -4.3974,-0.3623 -2.311,-3.3668 -6.2173,-0.9698 -6.2957,4.6148 -4.0445,6.5934 3.7825,6.2193 4.8473,-0.2253 4.3689,2.5796 7.8272,-4.8791 -1.2728,-4.3274 z" />
      <path
         style="fill:#099c4a;fill-opacity:1;stroke:#099c4a;stroke-width:2;stroke-linecap:butt;stroke-linejoin:round;stroke-opacity:1"
         id="path60"
         d="m -76.53,52.54 -5.2311,-3.1636 -7.1891,1.1392 -1.1023,2.8738 -15.557,10.212 -3.2059,0.8543 -3.6316,6.6805 5.6936,4.6037 17.049,-7.5021 7.7199,-8.841 z" />
      <path
         style="fill:#099c4a;fill-opacity:1;stroke:#099c4a;stroke-width:2;stroke-linecap:butt;stroke-linejoin:round;stroke-opacity:1"
         id="path62"
         d="m -78.45,60.69 -3.5377,-1.3014 -4.8434,-0.8236 -4.2564,4.9615 -7.525,0.0324 -3.6842,7.2455 -1.2596,3.5188 2.5574,1.6874 5.0274,-2.8187 2.039499,3.933 15.219,-3.6221 z" />
      <path
         style="fill:#099c4a;fill-opacity:1;stroke:#099c4a;stroke-width:2;stroke-linecap:butt;stroke-linejoin:round;stroke-opacity:1"
         id="path64"
         d="m -102.29,70.82 -5.2658,2.1659 -1.8966,-4.2585 0.64,-4.2644 -6.9754,4.4992 -8.4721,-0.566 -0.2769,9.3118 14.113,0.3006 7.4362,4.5882 1.9952,-6.5706 z" />
      <path
         style="fill:#099c4a;fill-opacity:1;stroke:#099c4a;stroke-width:2;stroke-linecap:butt;stroke-linejoin:round;stroke-opacity:1"
         id="path66"
         d="m -66.44,77.43 -10.238,1.5829 -0.2193,5.3855 9.1505,1.5012 6.0051,-3.2099 z" />
      <path
         style="fill:#099c4a;fill-opacity:1;stroke:#099c4a;stroke-width:2;stroke-linecap:butt;stroke-linejoin:round;stroke-opacity:1"
         id="path68"
         d="m -61.74,82.69 2.7315,0.9019 0.0981,7.6262 -7.6302,5.2625 -7.5098,-3.3203 -5.5606,-4.0333 2.7155,-4.7281 z" />
      <path
         style="fill:#099c4a;fill-opacity:1;stroke:#099c4a;stroke-width:2;stroke-linecap:butt;stroke-linejoin:round;stroke-opacity:1"
         id="path70"
         d="m -76.9,84.41 -9.2533,-0.0866 -2.5224,-3.6652 -4.9136,2.6632 -1.5042,4.205 -6.5901,3.7774 1.3109,12.818 2.4766,0.8584 20.418,-17.694 z" />
      <path
         style="fill:#099c4a;fill-opacity:1;stroke:#099c4a;stroke-width:2;stroke-linecap:butt;stroke-linejoin:round;stroke-opacity:1"
         id="path72"
         d="m -97.89,104.97 -0.549,2.7056 5.4692,0.2303 7.696,-11.286 8.6812,-2.1974 6.0086,7.3192 4.0449,-5.2599 -10.915,-9.2966 -7.9701,0.5752 -5.5204,5.7087 z" />
      <path
         style="fill:#099c4a;fill-opacity:1;stroke:#099c4a;stroke-width:2;stroke-linecap:butt;stroke-linejoin:round;stroke-opacity:1"
         id="path74"
         d="m -132.82,77.52 -8.3036,7.1596 3.1569,8.1463 1.192,3.264 8.6671,2.161 6.6782,-12.671 -3.1155,-7.8767 z" />
      <path
         style="fill:#099c4a;fill-opacity:1;stroke:#099c4a;stroke-width:2;stroke-linecap:butt;stroke-linejoin:round;stroke-opacity:1"
         id="path76"
         d="m -121.43,85.58 3.3948,1.6269 3.9333,-2.0427 2.4334,4.6996 -4.7351,4.180399 5.1252,1.2213 1.4141,8.112301 -2.9696,2.0315 -11.963,-0.0671 -4.4618,-10.773003 2.2936,-6.7822 z" />
      <path
         style="fill:#099c4a;fill-opacity:1;stroke:#099c4a;stroke-width:2;stroke-linecap:butt;stroke-linejoin:round;stroke-opacity:1"
         id="path78"
         d="m -136.77,96.09 1.7954,8.4396 -6.171,9.0096 1.625,4.0803 13.334,1.328 3.4652,-17.057 -1.8055,-5.8174 -4.7273,-1.5035 z" />
      <path
         style="fill:#099c4a;fill-opacity:1;stroke:#099c4a;stroke-width:2;stroke-linecap:butt;stroke-linejoin:round;stroke-opacity:1"
         id="path80"
         d="m -122.72,101.89 -6.2002,5.593 0.6639,7.8973 -6.7062,0.8714 -1.3166,8.6734 5.7838,5.1184 3.6187,2.3646 10.406,-23.071 3.643,-3.9288 z" />
      <path
         style="fill:#099c4a;fill-opacity:1;stroke:#099c4a;stroke-width:2;stroke-linecap:butt;stroke-linejoin:round;stroke-opacity:1"
         id="path82"
         d="m -134.96,116.25 -6.1823,-2.713 -4.2256,0.6809 -1.1889,6.97 2.307,4.4157 -3.4999,3.6032 0.4707,2.8789 5.432,2.498 1.3387,-1.6966 -1.0324,-4.1989 2.7291,-2.1599 2.0709,6.8246 -3.0171,3.3354 -0.3895,1.7706 8.1608,-3.2479 -0.4666,-3.9279 1.9604,-1.241 z" />
      <path
         style="fill:#099c4a;fill-opacity:1;stroke:#099c4a;stroke-width:2;stroke-linecap:butt;stroke-linejoin:round;stroke-opacity:1"
         id="path84"
         d="m -137.96,92.82 -3.9396,0.0299 0.1288,3.3456 -5.7463,0.2475 -0.4531,-9.5237 2.7933,-4.0732 4.06,1.8274 6.5222,2.7709 z" />
      <path
         style="fill:#099c4a;fill-opacity:1;stroke:#099c4a;stroke-width:2;stroke-linecap:butt;stroke-linejoin:round;stroke-opacity:1"
         id="path86"
         d="m -141.77,96.2 2.6488,3.949 -1.1458,3.1289 -3.1895,0.2448 -0.1682,-4.1395 -4.1447,1.7443 -1.7954,-8.4396 -3.3122,-4.674 1.9065,-1.95 3.0009,0.8602 2.7922,7.2095 z" />
      <path
         style="fill:#099c4a;fill-opacity:1;stroke:#099c4a;stroke-width:2;stroke-linecap:butt;stroke-linejoin:round;stroke-opacity:1"
         id="path88"
         d="m 116.22,-156.29 -8.5368,5.5288 1.4997,16.474 -4.3485,6.2409 -1.5022,10.01 -5.8324,2.909 -0.1449,11.678 -6.1971,2.6416 -11.247,-7.4557 -3.6043,3.0826 3.3036,5.8997 -14.131,7.0411 -1.4975,8.7787 5.0843,9.8983 -4.7132,5.9736 2.3063,5.73 11.373,-7.7155 4.4464,2.8091 5.0978,-2.2127 -8.012701,-9.5746 -3.6968,1.2191 -3.902,-6.0014 5.5791,-6.237 4.9815,2.0788 2.535,6.7955 13.994,-6.2431 23.201001,21.601 12.243,-17.627 12.526,-4.8504 12.361,3.3337 10.959,-4.090201 -4.8699,-5.1395 -1.0905,-10.450999 6.5933,-7.2203 -0.3201,-3.8483 -11.678,6.6594 -9.5636,-4.0899 -20.788,-17.701 -5.6296,-15.123 z" />
      <path
         style="fill:#099c4a;fill-opacity:1;stroke:#099c4a;stroke-width:2;stroke-linecap:butt;stroke-linejoin:round;stroke-opacity:1"
         id="path90"
         d="m 19.8,56.76 0.1504,-9.5952 -3.5501,-1.7408 1.8152,-3.9771 8.4697,-2.4958 3.529,-3.7733 5.4984,3.6464 1.792,16.661 -8.4619,-3.1881 z" />
      <path
         style="fill:#099c4a;fill-opacity:1;stroke:#099c4a;stroke-width:2;stroke-linecap:butt;stroke-linejoin:round;stroke-opacity:1"
         id="path92"
         d="m 60.46,44.44 -9.1666,-4.1826 -13.791,15.236 3.4656,5.3124 5.4426,7.9864 10.099,0.3417 -2.6145,-12.864 z" />
      <path
         style="fill:#099c4a;fill-opacity:1;stroke:#099c4a;stroke-width:2;stroke-linecap:butt;stroke-linejoin:round;stroke-opacity:1"
         id="path94"
         d="m 35.71,38.82 9.1701,-4.0385 6.4126,5.4637 -3.4185,11.839 -10.372,3.3968 -3.81,-11.494 z" />
      <path
         style="fill:#099c4a;fill-opacity:1;stroke:#099c4a;stroke-width:2;stroke-linecap:butt;stroke-linejoin:round;stroke-opacity:1"
         id="path96"
         d="m 40.46,67.88 2.9969,1.909 -5.3299,4.0792 -2.2893,9.3189 2.7461,0.8168 8.366,-4.9624 2.3806,-7.2922 7.1808,-2.6275 -4.6966,-5.7841 -6.3954,1.0992 -4.4498,-3.643 -0.9924,3.7672 z" />
      <path
         style="fill:#099c4a;fill-opacity:1;stroke:#099c4a;stroke-width:2;stroke-linecap:butt;stroke-linejoin:round;stroke-opacity:1"
         id="path98"
         d="m -155.756,140.7 -4.9182,3.1549 -4.083,-1.6702 -1.4847,2.0414 1.2063,2.5053 -3.4334,2.227 -2.5055,7.052 4.3614,0.2784 2.7839,-6.5881 9.6507,-4.2683 z" />
    </g>
  </svg>
</svg>
